<?xml version="1.0" encoding="UTF-8" standalone="no"?>
<!-- Created with Inkscape (http://www.inkscape.org/) -->

<svg
   xmlns:dc="http://purl.org/dc/elements/1.1/"
   xmlns:cc="http://creativecommons.org/ns#"
   xmlns:rdf="http://www.w3.org/1999/02/22-rdf-syntax-ns#"
   xmlns:svg="http://www.w3.org/2000/svg"
   xmlns="http://www.w3.org/2000/svg"
   xmlns:sodipodi="http://sodipodi.sourceforge.net/DTD/sodipodi-0.dtd"
   xmlns:inkscape="http://www.inkscape.org/namespaces/inkscape"
   width="744.09448819"
   height="1052.3622047"
   id="svg2"
   version="1.1"
   inkscape:version="0.48.2 r9819"
   sodipodi:docname="karman.svg">
  <defs
     id="defs4">
    <inkscape:path-effect
       effect="spiro"
       id="path-effect5262"
       is_visible="true" />
  </defs>
  <sodipodi:namedview
     id="base"
     pagecolor="#ffffff"
     bordercolor="#666666"
     borderopacity="1.0"
     inkscape:pageopacity="0.0"
     inkscape:pageshadow="2"
     inkscape:zoom="0.74499066"
     inkscape:cx="372.04724"
     inkscape:cy="526.18109"
     inkscape:document-units="px"
     inkscape:current-layer="layer1"
     showgrid="false"
     inkscape:window-width="1680"
     inkscape:window-height="1002"
     inkscape:window-x="0"
     inkscape:window-y="0"
     inkscape:window-maximized="0" />
  <metadata
     id="metadata7">
    <rdf:RDF>
      <cc:Work
         rdf:about="">
        <dc:format>image/svg+xml</dc:format>
        <dc:type
           rdf:resource="http://purl.org/dc/dcmitype/StillImage" />
        <dc:title></dc:title>
      </cc:Work>
    </rdf:RDF>
  </metadata>
  <g
     inkscape:label="Layer 1"
     inkscape:groupmode="layer"
     id="layer1">
    <path
       sodipodi:type="arc"
       style="fill:none;stroke:#000000;stroke-width:1px;stroke-linecap:butt;stroke-linejoin:miter;stroke-opacity:1"
       id="path3050"
       sodipodi:cx="86.180618"
       sodipodi:cy="373.88571"
       sodipodi:rx="32.278557"
       sodipodi:ry="32.278557"
       d="m 118.45918,373.88571 a 32.278557,32.278557 0 1 1 -64.557119,0 32.278557,32.278557 0 1 1 64.557119,0 z"
       transform="matrix(1.1529703,0,0,1.1529703,-27.838131,-273.70047)"
       inkscape:export-filename="/Users/weymouth/Desktop/lily.png"
       inkscape:export-xdpi="26.152758"
       inkscape:export-ydpi="26.152758" />
    <path
       style="opacity:0.81465520000000002;fill:#009b00;fill-opacity:1;stroke:none"
       d="M 61.712364,121.45313 C 96.83526,105.82648 147.03205,105.40724 176.54751,105.8 c 29.51545,0.39275 58.53376,18.67516 54.47346,39.66041 -5.22124,16.73152 -28.91364,8.39235 -37.90988,-0.64222 -10.37345,-8.95307 -14.99177,-16.88565 -24.16224,-16.57423 -9.17047,0.31142 -17.82213,5.18817 -13.15421,12.58046 4.66791,7.39229 25.94746,21.35414 45.45457,32.91877 19.50711,11.56463 23.20213,14.73237 43.47449,19.36983 20.27236,4.63745 36.33023,-7.40866 46.60561,-23.75956 10.27539,-16.35091 36.6251,-68.82821 53.01392,-88.36419 16.38882,-19.53598 49.6424,-46.59533 90.17623,-46.341 40.53384,0.25434 64.29009,27.41876 73.81734,42.58065 9.52724,15.16189 7.24339,36.17214 4.7161,45.17122 -2.52729,8.99908 -11.31704,17.99801 -27.4434,2.6706 -16.12637,-15.32741 -19.45638,-50.75668 -1.96742,-53.66738 17.48896,-2.9107 26.54353,10.89177 29.02483,24.34537 2.48131,13.4536 -5.60513,36.8774 -18.40366,24.91515 -12.79853,-11.96226 -10.48362,-24.49052 1.88418,-23.95192 0.38437,-8.78185 -12.04802,-12.36184 -13.51295,-0.70516 -1.46493,11.65668 4.38514,25.56053 15.41464,29.92094 11.0295,4.36041 12.99853,-6.24907 14.59434,-19.77677 C 514.23927,92.62326 503.54595,70.69002 488.96398,58.10773 474.382,45.52544 453.48688,36.9846 434.53546,37.28257 c -18.95142,0.29797 -34.32629,5.82145 -49.30353,13.66031 -19.28598,10.09399 -30.53918,23.60961 -39.58767,32.55015 -9.04849,8.94054 -39.10817,65.3641 -52.44522,87.43218 -13.33705,22.06808 -26.18792,29.00716 -47.35608,25.05024 -28.83763,-4.81886 -62.17826,-31.50663 -85.41097,-46.5179 -12.55413,-6.50463 -23.44969,-14.77172 -15.52718,-22.25548 7.92252,-7.48375 34.16283,-8.56472 44.10998,-6.57925 9.94715,1.98547 16.97067,7.51031 24.9037,15.32271 0.15517,-10.25123 -9.09272,-15.88687 -20.03107,-19.48286 -10.93835,-3.59599 -29.82121,-2.31935 -51.61272,0.91334 -21.79151,3.23269 -28.25141,7.53021 -41.93686,15.7858 -11.342455,-8.32275 -15.305821,-16.25592 -38.625476,-11.70868 z"
       id="path5594"
       inkscape:connector-curvature="0"
       sodipodi:nodetypes="czcczzzzzzzzzzzszczzzzzszzcczzczzcc"
       inkscape:export-filename="/Users/weymouth/Desktop/lily.png"
       inkscape:export-xdpi="26.152758"
       inkscape:export-ydpi="26.152758" />
    <g
       id="g5652"
       style="fill:#003a00;fill-opacity:1"
       inkscape:export-filename="/Users/weymouth/Desktop/lily.png"
       inkscape:export-xdpi="26.152758"
       inkscape:export-ydpi="26.152758">
      <path
         inkscape:export-ydpi="26.152758"
         inkscape:export-xdpi="26.152758"
         inkscape:export-filename="/Users/weymouth/Desktop/flowRoot5644.png"
         sodipodi:nodetypes="czczzzczzccczszccczcczszcc"
         inkscape:connector-curvature="0"
         id="path5633"
         d="m 98.07173,183.07126 c 19.00014,7.31636 26.258,10.42798 39.69686,4.04304 13.43886,-6.38494 -2.16517,-14.77624 7.87803,-17.83222 21.56434,-4.41984 44.77486,13.32173 56.35746,20.50197 11.5826,7.18024 45.27179,27.94713 66.92948,29.50754 21.65769,1.56041 36.33832,0.58884 55.06377,-8.91516 18.72545,-9.504 17.75565,-19.25631 22.7667,-33.36639 2.40275,-12.12077 3.96579,-20.61851 -0.77686,-24.78793 -4.74261,-4.16941 -14.47153,0.50171 -21.73409,9.05297 -7.26256,8.55125 -12.27396,19.40691 -12.20426,32.26835 5.30963,12.20384 17.39168,3.58358 23.66453,-6.94982 -2.91736,2.18935 -8.52502,-1.73597 -9.8022,-6.94333 -1.20777,-8.1734 14.63724,-22.61966 20.95959,-14.62983 6.32234,7.98983 2.28944,16.19513 -0.21438,22.34192 -4.49558,11.0365 -12.53179,18.38024 -20.45334,22.09497 -7.92155,3.71472 -11.03133,8.51736 -29.94467,11.05528 -5.00365,-8.23087 9.67983,-40.53419 16.23048,-52.85235 6.31252,-10.35125 20.37452,-33.03025 33.15542,-29.68627 10.494,5.2168 10.09873,16.36321 9.56492,27.48474 -0.5338,11.12154 -4.15949,23.83762 -13.64619,34.68914 -20.77112,25.96524 -63.33634,26.1337 -83.78774,20.70115 -24.84728,-6.91703 -54.14813,-26.92547 -63.5405,-29.25007 -9.39237,-2.32459 -18.39197,2.70717 -30.14202,7.28821 -11.29987,4.40552 -31.10686,6.66062 -51.421,6.30873 -20.314138,-0.35189 -36.6512,-2.75846 -53.168592,-12.47716 18.322182,4.3779 31.013382,-1.23231 38.568602,-9.64748 z"
         style="opacity:0.81465520000000002;fill:#003a00;fill-opacity:1;stroke:none" />
      <path
         inkscape:export-ydpi="26.152758"
         inkscape:export-xdpi="26.152758"
         inkscape:export-filename="/Users/weymouth/Desktop/flowRoot5644.png"
         sodipodi:nodetypes="cszzzzzzzcczzzzzzzscc"
         inkscape:connector-curvature="0"
         id="path5641"
         d="m 144.00894,169.83169 c 5.68633,-4.28162 20.8649,-6.15755 38.70973,1.16906 27.566,11.31787 74.05323,41.75114 89.39709,40.00578 15.34386,-1.74536 23.39238,-21.30491 28.84765,-34.47787 5.45527,-13.17295 19.53485,-47.94691 30.46819,-65.60224 10.93334,-17.65533 32.4297,-40.97463 47.79766,-49.3344 15.36796,-8.35977 30.40626,-14.3597 39.68824,-5.67941 9.28198,8.68029 9.15582,31.64919 16.63758,52.51268 7.48177,20.8635 25.65683,61.57535 34.06695,75.46781 8.41012,13.89246 18.53674,28.16854 30.45852,40.02595 -10.31774,-0.43393 2.85449,0.16773 -5.77867,-0.13137 -11.51528,-12.11364 -22.01364,-26.55869 -30.25419,-40.77624 -8.24055,-14.21755 -26.47243,-55.11142 -32.99884,-76.02021 -6.52641,-20.90879 -7.51045,-42.34007 -16.87641,-47.99794 -9.36596,-5.65787 -17.60752,-2.85135 -32.17402,3.99264 -14.5665,6.84399 -36.95461,30.95455 -48.65805,48.6299 -11.70344,17.67534 -23.67017,51.25646 -30.06,65.36833 -6.38983,14.11187 -13.15655,34.70081 -31.0415,36.66184 -17.88496,1.96102 -50.84392,-23.0509 -74.36513,-32.07285 -11.03762,-4.23367 -7.77515,-0.92886 -9.57321,0.0763 -15.84817,-10.95836 -33.36737,-14.79352 -44.29159,-11.81776 z"
         style="opacity:0.81465520000000002;fill:#003a00;fill-opacity:1;stroke:none" />
    </g>
    <flowRoot
       xml:space="preserve"
       id="flowRoot5644"
       style="font-size:40px;font-style:normal;font-weight:normal;line-height:125%;letter-spacing:0px;word-spacing:0px;fill:#003a00;fill-opacity:1;stroke:none;font-family:Sans"
       transform="translate(37.795659,-429.3717)"
       inkscape:export-xdpi="26.152758"
       inkscape:export-ydpi="26.152758"
       inkscape:export-filename="/Users/weymouth/Desktop/lily.png"><flowRegion
         id="flowRegion5646"><rect
           id="rect5648"
           width="481.90347"
           height="244.88002"
           x="47.56213"
           y="438.54147"
           style="fill:#003a00;fill-opacity:1" /></flowRegion><flowPara
         id="flowPara5650"
         style="font-size:72px;font-style:normal;font-variant:normal;font-weight:500;font-stretch:normal;text-align:start;line-height:125%;writing-mode:lr-tb;text-anchor:start;fill:#003a00;fill-opacity:1;font-family:Apple LiGothic;-inkscape-font-specification:Apple LiGothic Medium">Lily Pad</flowPara></flowRoot>  </g>
</svg>
